<svg xmlns="http://www.w3.org/2000/svg" width="856" height="360" viewBox="0 0 856 360" version="1.1">
	<path d="M 395.809 1.524 C 395.521 1.813, 392.055 2.943, 388.108 4.037 C 384.161 5.131, 380.159 6.434, 379.216 6.932 C 369.045 12.303, 359.573 16.220, 359.232 15.197 C 358.607 13.321, 357.302 13.693, 347.386 18.582 C 341.700 21.385, 337.370 22.935, 336.234 22.574 C 335.033 22.193, 326.975 25.655, 313.438 32.368 C 301.922 38.078, 291.150 43.066, 289.500 43.452 C 287.850 43.838, 285.150 44.770, 283.500 45.523 C 281.850 46.276, 278.025 47.553, 275 48.360 C 271.975 49.167, 268.150 50.337, 266.500 50.960 C 264.850 51.583, 255.625 54.515, 246 57.475 C 227.375 63.203, 218.467 66.200, 215.395 67.771 C 209.535 70.767, 203.759 72.969, 202.995 72.497 C 202.513 72.199, 200.630 73.237, 198.810 74.804 C 196.989 76.370, 191.258 80.059, 186.074 83.002 C 171.502 91.273, 146.044 109.204, 129.187 123.070 C 126.609 125.190, 123.150 128.014, 121.500 129.345 C 117.345 132.697, 111.536 142.884, 108.387 152.340 C 106.211 158.875, 105.855 161.337, 106.372 166.286 C 106.718 169.591, 107.385 172.791, 107.855 173.398 C 108.325 174.004, 109.203 175.965, 109.805 177.756 C 110.861 180.896, 110.722 181.180, 105.950 185.643 C 101.871 189.459, 101 190.880, 101 193.719 C 101 197.779, 106.537 205.205, 111.423 207.697 C 118.505 211.309, 126.740 217.568, 130.188 221.961 C 133.719 226.458, 140.969 231.313, 156 239.247 C 159.025 240.844, 162.190 242.773, 163.034 243.535 C 163.878 244.296, 167.028 246.009, 170.034 247.340 C 173.156 248.723, 179.304 253.137, 184.369 257.631 C 199.095 270.697, 203.863 273.349, 218.006 276.337 C 221.034 276.977, 225.692 278.978, 228.357 280.784 C 234.421 284.895, 241.306 288.367, 246.500 289.933 C 248.700 290.597, 251.400 291.556, 252.500 292.065 C 255.465 293.437, 267.206 295.906, 278.119 297.451 C 283.410 298.201, 289.035 299.465, 290.619 300.261 C 292.204 301.057, 295.744 302.257, 298.487 302.928 C 301.229 303.599, 303.929 304.520, 304.487 304.976 C 305.044 305.431, 309.100 306.317, 313.500 306.946 C 328.044 309.022, 334.149 310.923, 339.730 315.110 C 342.606 317.268, 346.069 319.456, 347.424 319.971 C 350.072 320.978, 358.372 327.214, 379.735 344.250 C 387.149 350.163, 393.967 355, 394.885 355 C 395.804 355, 397.584 355.721, 398.842 356.602 C 400.966 358.089, 401.231 358.072, 402.533 356.352 C 403.305 355.334, 403.951 353.488, 403.968 352.250 C 403.988 350.871, 404.617 350, 405.594 350 C 406.470 350, 407.423 349.100, 407.710 348 C 407.998 346.900, 408.852 346, 409.608 346 C 410.364 346, 411.545 345.100, 412.232 344 C 412.919 342.900, 414.527 342, 415.806 342 C 419.848 342, 422.247 340.122, 421.584 337.477 C 421.106 335.576, 422.010 334.107, 426.246 329.899 C 429.136 327.027, 432.232 324.613, 433.127 324.534 C 435.177 324.352, 437.540 322.024, 438.388 319.352 C 438.747 318.221, 441.973 315.414, 445.556 313.113 C 449.985 310.270, 451.980 308.381, 451.786 307.215 C 451.613 306.181, 452.053 305.618, 452.894 305.798 C 455.946 306.450, 459.882 304.842, 460.189 302.816 C 460.392 301.478, 461.890 300.232, 464.500 299.233 C 466.700 298.390, 469.850 296.738, 471.500 295.561 C 473.150 294.384, 476.413 292.583, 478.750 291.559 C 481.087 290.534, 483 289.336, 483 288.895 C 483 287.809, 488.714 285.333, 492.960 284.580 C 497.559 283.764, 507.901 276.985, 507.957 274.750 C 507.986 273.571, 508.800 273, 510.453 273 C 513.900 273, 518.165 270.924, 520.398 268.159 C 521.813 266.407, 522.968 265.944, 524.941 266.338 C 527.256 266.801, 527.797 266.380, 529.280 262.956 C 531.208 258.506, 534.609 257.045, 538.703 258.911 C 541.576 260.219, 542.981 259.581, 541.183 257.783 C 539.692 256.292, 539.645 254, 541.106 254 C 541.714 254, 543.097 252.875, 544.179 251.500 C 545.260 250.125, 546.934 249, 547.898 249 C 548.862 249, 550.708 247.875, 552 246.500 C 553.292 245.125, 554.848 244, 555.459 244 C 556.070 244, 558.059 242.200, 559.878 240 C 561.698 237.800, 563.735 236, 564.406 236 C 566.503 236, 575.703 231.193, 579.179 228.282 C 584.848 223.533, 588.845 221.001, 590.710 220.978 C 591.694 220.965, 594.947 218.507, 597.939 215.515 C 603.171 210.281, 603.312 210.002, 601.643 208.158 C 599.976 206.316, 600.060 206.120, 603.799 203.160 C 608.140 199.721, 612.629 198.505, 624.737 197.487 C 637.154 196.443, 645.949 199.171, 660.866 208.697 C 666.116 212.049, 693.049 227.369, 698 229.819 C 699.375 230.499, 706.350 234.124, 713.500 237.874 C 736.956 250.177, 745.443 254.489, 749.500 256.164 C 763.097 261.779, 768.861 264.243, 771.619 265.618 C 775.689 267.648, 779.611 267.150, 779.185 264.656 C 778.916 263.084, 779.320 262.911, 781.935 263.486 C 786.414 264.470, 785.826 262.206, 780.524 258.054 C 775.674 254.256, 775.508 252.752, 780.039 253.658 C 782.208 254.092, 783 253.870, 783 252.830 C 783 251.069, 774.345 244.383, 767.568 240.909 C 754.178 234.047, 753.370 233.518, 755.750 233.180 C 758.312 232.817, 758.737 231.220, 756.500 230.362 C 755.675 230.045, 755 229.195, 755 228.473 C 755 227.751, 752.520 224.794, 749.489 221.901 C 745.509 218.103, 744.140 216.135, 744.558 214.816 C 744.943 213.604, 744.526 212.773, 743.319 212.343 C 740.169 211.222, 738.199 208.955, 738.703 207.029 C 739.026 205.791, 738.406 204.754, 736.844 203.922 C 731.379 201.009, 728 197.499, 728 194.734 C 728 192.557, 727.254 191.612, 724.500 190.299 C 722.575 189.381, 721 188.008, 721 187.248 C 721 186.488, 719.868 184.382, 718.485 182.569 C 716.321 179.732, 716.173 179.102, 717.425 178.062 C 718.226 177.398, 718.652 176.257, 718.372 175.528 C 718.093 174.799, 718.344 173.905, 718.932 173.542 C 720.410 172.628, 720.276 168.280, 718.750 167.655 C 717.370 167.089, 722.664 161.946, 727.142 159.502 C 728.595 158.709, 731.249 156.210, 733.040 153.949 C 734.831 151.688, 738.091 148.705, 740.284 147.321 C 745.077 144.295, 751.819 137.225, 756.031 130.809 C 758.014 127.788, 760.247 125.734, 762.305 125.036 C 765.462 123.966, 774.477 115.726, 780.713 108.211 C 782.748 105.758, 785.406 103.895, 787.963 103.129 C 790.183 102.464, 792 101.488, 792 100.960 C 792 99.587, 790.860 99.735, 782.505 102.193 C 775.392 104.285, 773.091 104.279, 774.394 102.172 C 774.720 101.643, 778.277 99.628, 782.298 97.694 C 789.081 94.431, 792.895 91.562, 791.846 90.513 C 791.262 89.929, 782.477 92.364, 777.663 94.443 C 774.763 95.695, 773.492 95.823, 772.461 94.967 C 770.916 93.685, 768.706 94.194, 761.500 97.491 C 758.750 98.750, 754.475 100.665, 752 101.748 C 749.525 102.831, 745.495 104.670, 743.044 105.835 C 739.942 107.310, 738.379 107.614, 737.899 106.836 C 737.268 105.815, 732.476 107.655, 727 111.020 C 724.273 112.696, 696.621 125.750, 690 128.487 C 679.320 132.903, 676.844 134.125, 671.041 137.843 C 664.104 142.288, 652 148.287, 645.715 150.395 C 643.083 151.278, 637.775 152, 633.919 152 C 627.933 152, 625.854 151.486, 619.704 148.484 C 615.742 146.551, 611.333 144.188, 609.906 143.234 C 602.239 138.107, 599 135.657, 599 134.984 C 599 133.799, 603.007 133.028, 609.250 133.014 C 614.203 133.002, 615 132.740, 615 131.122 C 615 128.791, 613.535 127.594, 608.830 126.079 C 606.811 125.429, 604.627 124.255, 603.975 123.470 C 602.665 121.892, 590.931 114.118, 587 112.225 C 585.625 111.563, 580.544 108.545, 575.708 105.519 C 570.873 102.493, 565.698 99.726, 564.208 99.371 C 562.719 99.015, 561.050 98.395, 560.500 97.992 C 559.950 97.590, 557.700 96.695, 555.500 96.004 C 553.300 95.313, 550.825 94.162, 550 93.446 C 548.420 92.075, 544.058 90.497, 532.468 87.104 C 527.327 85.599, 524.518 84.098, 522.022 81.523 C 520.144 79.585, 518.091 78, 517.459 78 C 516.827 78, 515.531 77.139, 514.579 76.088 C 513.216 74.582, 510.835 74.024, 503.372 73.465 C 494.787 72.821, 493.527 72.460, 489.988 69.627 C 482.610 63.722, 478.584 61.775, 471.622 60.741 C 466.278 59.948, 464.631 59.305, 464.255 57.866 C 463.850 56.318, 463.131 56.115, 459.885 56.634 C 457.202 57.063, 456 56.888, 456 56.067 C 456 55.221, 454.678 55.076, 451.428 55.563 C 447.336 56.177, 446.889 56.055, 447.178 54.400 C 447.451 52.833, 446.930 52.598, 443.748 52.853 C 440.854 53.085, 439.843 52.736, 439.327 51.327 C 438.335 48.621, 430.784 42.030, 428.656 42.014 C 427.642 42.006, 426.577 41.100, 426.290 40 C 426.002 38.900, 425.127 38, 424.344 38 C 423.562 38, 421.132 36.228, 418.945 34.062 C 416.757 31.896, 414.075 29.841, 412.984 29.495 C 411.893 29.149, 411 27.996, 411 26.933 C 411 25.870, 410.540 25, 409.978 25 C 408.152 25, 391.554 31.778, 384.437 35.431 C 376.950 39.272, 375 39.737, 375 37.679 C 375 36.208, 384.686 28.217, 392.750 23.036 C 395.637 21.181, 398 19.236, 398 18.715 C 398 17.432, 394.985 18.222, 385.500 21.991 C 381.100 23.739, 375.700 25.785, 373.500 26.538 C 371.300 27.290, 367.538 28.617, 365.141 29.486 C 360.873 31.032, 357 30.775, 357 28.945 C 357 28.029, 363.235 23.671, 368 21.256 C 369.375 20.560, 375.225 17.083, 381 13.530 C 386.775 9.977, 393.188 6.145, 395.250 5.015 C 399 2.960, 400.179 1, 397.667 1 C 396.933 1, 396.097 1.236, 395.809 1.524" stroke="none" fill="black" fill-rule="evenodd"/>
</svg>