<svg xmlns="http://www.w3.org/2000/svg" width="557" height="247" viewBox="0 0 557 247" version="1.1">
	<path d="M 194.214 5.902 C 186.643 12.202, 185.734 13.393, 163.984 45.500 C 153.924 60.350, 143.744 74.907, 141.360 77.849 C 132.266 89.074, 127.619 91.237, 101.275 96.513 C 91.460 98.479, 77.902 102.015, 71 104.409 C 48.757 112.126, 19.892 126.584, 4.655 137.641 C -0.976 141.727, -1.351 144.486, 2.829 151.054 C 6.622 157.014, 7.865 157.889, 13.601 158.634 C 20.829 159.573, 22.503 160.930, 16.500 160.985 C 13.750 161.010, 10.988 161.361, 10.361 161.765 C 9.175 162.530, 9.673 177.006, 10.884 176.994 C 11.223 176.990, 12.272 175.631, 13.215 173.973 L 14.931 170.959 18.700 172.979 C 20.774 174.091, 23.152 174.993, 23.985 174.985 C 24.818 174.977, 43.500 179.450, 65.500 184.926 C 87.500 190.402, 107.140 195.145, 109.145 195.467 C 112.357 195.982, 113.085 196.673, 115.272 201.276 C 119.108 209.353, 126.140 218.015, 137.970 229.234 C 144.684 235.600, 149.385 240.924, 150.347 243.250 C 151.200 245.313, 152.371 247, 152.949 247 C 154.530 247, 154.278 246.154, 150.934 240.230 C 149.248 237.242, 148.089 234.577, 148.359 234.308 C 149.661 233.006, 153.273 235.611, 156.670 240.303 C 161.042 246.339, 162.138 247.262, 163.418 245.982 C 163.998 245.402, 162.726 243.118, 160.070 239.968 C 156.488 235.719, 155.906 234.449, 156.511 232.195 C 156.908 230.713, 157.445 226.419, 157.703 222.654 C 158.075 217.214, 157.716 214.587, 155.952 209.871 C 154.731 206.606, 153.950 203.717, 154.217 203.450 C 154.484 203.183, 169.056 203.657, 186.601 204.504 C 204.145 205.351, 222.807 205.750, 228.072 205.391 C 234.827 204.931, 238.316 205.099, 239.930 205.962 C 241.187 206.635, 248.130 211.571, 255.358 216.931 C 277.028 232.999, 290.542 241.823, 294.663 242.597 C 299.985 243.595, 308.556 241.573, 312.869 238.302 C 317.491 234.796, 334.745 219.201, 342.042 211.934 C 347.895 206.106, 354.353 196.438, 355.529 191.743 C 355.990 189.903, 355.684 188.167, 354.610 186.528 C 352.501 183.308, 352.565 183, 355.344 183 C 356.633 183, 362.596 186.200, 368.594 190.112 C 382.045 198.884, 394.362 205, 398.576 205 C 401.212 205, 402.850 203.838, 408.129 198.219 C 411.633 194.490, 417.745 186.728, 421.711 180.969 C 425.677 175.211, 430.530 168.849, 432.495 166.832 C 435.765 163.475, 436.685 163.106, 443.331 162.484 C 452.523 161.622, 452.977 161.813, 476.147 176.239 C 509.769 197.174, 512.771 198.677, 530.768 203.592 C 540.278 206.189, 542.941 206.111, 546.388 203.132 C 551.082 199.075, 551.230 197.117, 549.411 163.154 L 547.716 131.500 550.277 121.500 C 551.686 116, 553.342 107.900, 553.958 103.500 C 554.574 99.100, 555.525 93.214, 556.073 90.420 C 557.867 81.256, 556.431 80.592, 542.203 84.003 C 532.052 86.437, 519.451 91.570, 508.818 97.604 C 497.029 104.293, 463.372 124.704, 456.805 129.147 C 451.788 132.541, 450.418 132.996, 445.305 132.965 C 442.112 132.945, 438.465 132.355, 437.200 131.653 C 434.809 130.325, 406.738 101.178, 400.388 93.428 C 397.354 89.726, 396.186 89, 393.260 89 C 389.230 89, 380.765 93.792, 372.120 100.967 C 363.729 107.931, 355.806 113, 353.310 113 C 350.522 113, 346 110.984, 346 109.741 C 346 106.033, 341.088 100.621, 325.665 87.334 C 316.224 79.201, 303.550 68, 297.500 62.442 C 285.119 51.067, 283.512 50, 278.761 50 C 274.660 50, 262.255 58.187, 241.477 74.606 C 233.764 80.701, 226.481 86.207, 225.292 86.843 C 224.104 87.480, 220.964 87.994, 218.316 87.987 C 213.757 87.975, 213.252 87.692, 208.846 82.668 C 194.545 66.358, 187.101 53.126, 186.248 42.500 C 185.692 35.573, 187.901 23.425, 191.047 16.112 C 192.191 13.452, 195.124 9.373, 197.564 7.048 C 201.875 2.939, 202.993 1, 201.052 1 C 200.530 1, 197.453 3.206, 194.214 5.902" stroke="none" fill="black" fill-rule="evenodd"/>
</svg>